<svg width="57" height="36" viewBox="0 0 57 36" fill="none" xmlns="http://www.w3.org/2000/svg">
<g clip-path="url(#clip0_9110_2062)">
<path fill-rule="evenodd" clip-rule="evenodd" d="M27.0204 32.5539H29.0693C29.2073 32.5487 29.3418 32.5982 29.4437 32.6916C29.5456 32.7851 29.6066 32.9149 29.6136 33.0532V34.3459C29.6066 34.4841 29.5456 34.614 29.4437 34.7075C29.3418 34.8009 29.2073 34.8504 29.0693 34.8452H27.0204C26.8824 34.8504 26.7479 34.8009 26.646 34.7075C26.5441 34.614 26.4831 34.4841 26.4761 34.3459V33.0532C26.4831 32.9149 26.5441 32.7851 26.646 32.6916C26.7479 32.5982 26.8824 32.5487 27.0204 32.5539ZM19.5201 3.3488H36.56C36.6894 3.34359 36.8156 3.3895 36.9115 3.47665C37.0074 3.5638 37.0652 3.6852 37.0726 3.8147V31.0051C37.0656 31.1342 37.0083 31.2554 36.913 31.3425C36.8178 31.4296 36.6921 31.4758 36.5632 31.471H19.5201C19.3916 31.4754 19.2666 31.429 19.1719 31.3418C19.0772 31.2547 19.0205 31.1338 19.0139 31.0051V3.8147C19.0205 3.68605 19.0772 3.56514 19.1719 3.478C19.2666 3.39086 19.3916 3.34446 19.5201 3.3488ZM24.6129 1.26261H31.4752C31.5873 1.25831 31.6966 1.29875 31.779 1.37506C31.8614 1.45138 31.9103 1.55733 31.9148 1.66967C31.9094 1.78159 31.8603 1.88689 31.778 1.96278C31.6957 2.03867 31.587 2.07904 31.4752 2.07515H24.6129C24.5013 2.07903 24.3927 2.03861 24.3106 1.96268C24.2286 1.88675 24.1798 1.78145 24.1749 1.66967C24.1794 1.55761 24.228 1.45191 24.3101 1.37564C24.3922 1.29937 24.501 1.25874 24.6129 1.26261ZM19.6027 0.0795898H36.4838C37.3821 0.0795898 38.1169 0.753785 38.1169 1.57427V34.4365C38.1169 35.257 37.3821 35.9201 36.4854 35.9201H19.6011C18.706 35.9201 17.9775 35.257 17.9775 34.4365V1.57427C17.9775 0.753785 18.706 0.0795898 19.6027 0.0795898Z" fill="#FF7519"/>
<path fill-rule="evenodd" clip-rule="evenodd" d="M15.7005 35.92C15.7005 11.3501 9.11914 5.11057 9.11914 5.11057L16.6099 3.10071V5.77364L13.0899 6.71815C13.0899 6.71815 18.4001 18.0077 15.7005 35.92Z" fill="#74419A"/>
<path fill-rule="evenodd" clip-rule="evenodd" d="M13.5533 35.9199C12.7233 17.9997 3.10596 11.5916 3.10596 11.5916L9.56356 8.13159C9.91112 8.78671 10.2349 9.49429 10.5158 10.1462L7.06876 12.1386C7.06876 12.1386 14.9356 20.7251 13.5533 35.9199Z" fill="#74419A"/>
<path fill-rule="evenodd" clip-rule="evenodd" d="M11.5647 35.9202C9.95858 21.8082 0 17.2891 0 17.2891L4.08976 14.2457C4.56587 14.7418 5.04198 15.2841 5.46889 15.8263L3.72316 17.1524C3.72316 17.1524 11.8932 23.8705 11.5662 35.9154" fill="#74419A"/>
<path fill-rule="evenodd" clip-rule="evenodd" d="M28.5665 23.0564C29.1569 22.9956 29.7019 22.7112 30.09 22.2613C30.4948 21.7903 30.7088 21.1844 30.6899 20.5631C30.7146 20.0648 30.5641 19.5736 30.2646 19.175C29.9789 18.8273 29.4129 18.5437 28.5665 18.3243V23.0564ZM27.6317 12.0943C27.0749 12.1579 26.5601 12.4218 26.1828 12.8369C25.854 13.2204 25.6665 13.7053 25.6518 14.2107C25.6371 14.716 25.7959 15.2111 26.1018 15.6132C26.4013 15.9779 26.9112 16.2535 27.6317 16.44V12.0943ZM27.6317 25.9774V24.3873C26.9637 24.3233 26.3118 24.1436 25.7051 23.8562C25.1757 23.565 24.7335 23.1373 24.4244 22.6175C24.0437 21.9849 23.8256 21.2676 23.7896 20.5297H25.4242C25.5511 21.2315 25.7511 21.7573 26.0241 22.1071C26.2107 22.3673 26.4493 22.5857 26.7247 22.7486C27.0001 22.9114 27.3063 23.0152 27.6238 23.0532V18.0778C26.927 17.8896 26.2575 17.6117 25.6321 17.251C25.1393 16.9828 24.7351 16.5767 24.4688 16.0823C24.1928 15.5618 24.053 14.9797 24.0625 14.3904C24.0625 13.2625 24.4603 12.3488 25.256 11.6491C25.786 11.18 26.578 10.8922 27.6254 10.7873V10.0225H28.5665V10.7793C29.4822 10.8668 30.2075 11.1403 30.7439 11.5935C31.4305 12.1712 31.8448 12.9662 31.9865 13.9786H30.3122C30.2396 13.5402 30.0535 13.1284 29.7726 12.7844C29.4551 12.434 29.0312 12.1982 28.5665 12.1134V16.6801C29.1019 16.8056 29.6288 16.9649 30.144 17.1572C30.5907 17.3434 30.9979 17.6133 31.3438 17.9522C31.6591 18.2679 31.9037 18.6474 32.0611 19.0653C32.3157 19.7617 32.3764 20.5143 32.2366 21.2426C32.0968 21.9709 31.7619 22.6474 31.2676 23.1995C30.5725 23.932 29.6732 24.3247 28.5697 24.3777V25.9821L27.6317 25.9774Z" fill="#74419A"/>
<path fill-rule="evenodd" clip-rule="evenodd" d="M40.3981 35.92C40.3981 11.3501 46.9764 5.11057 46.9764 5.11057L39.4888 3.10071V5.77364L43.0088 6.71815C43.0088 6.71815 37.697 18.0077 40.3965 35.92" fill="#74419A"/>
<path fill-rule="evenodd" clip-rule="evenodd" d="M42.5451 35.9202C43.3752 17.9999 52.9941 11.5919 52.9941 11.5919L46.5349 8.12866C46.189 8.78378 45.8636 9.49136 45.5827 10.1433L49.025 12.1357C49.025 12.1357 41.1581 20.7221 42.5404 35.917" fill="#74419A"/>
<path fill-rule="evenodd" clip-rule="evenodd" d="M44.5352 35.9202C46.1412 21.8082 56.0982 17.2891 56.0982 17.2891L52.0085 14.2457C51.5324 14.7418 51.0562 15.2841 50.6293 15.8263L52.3751 17.1524C52.3751 17.1524 44.2051 23.8705 44.5336 35.9154" fill="#74419A"/>
</g>
<defs>
<clipPath id="clip0_9110_2062">
<rect width="56.0982" height="35.8405" fill="white" transform="translate(0 0.0797119)"/>
</clipPath>
</defs>
</svg>
