<svg width="40" height="40" viewBox="0 0 40 40" fill="none" xmlns="http://www.w3.org/2000/svg">
<circle cx="20" cy="20" r="20" fill="white" fill-opacity="0.07"/>
<path d="M19.9528 16.1515C22.3843 16.1515 24.3912 18.1584 24.3912 20.5898C24.3912 23.0599 22.3843 25.0282 19.9528 25.0282C17.4827 25.0282 15.5144 23.0599 15.5144 20.5898C15.5144 18.1584 17.4827 16.1515 19.9528 16.1515ZM19.9528 23.4844C21.5352 23.4844 22.8088 22.2108 22.8088 20.5898C22.8088 19.0075 21.5352 17.7338 19.9528 17.7338C18.3318 17.7338 17.0582 19.0075 17.0582 20.5898C17.0582 22.2108 18.3704 23.4844 19.9528 23.4844ZM25.5876 15.9971C25.5876 16.576 25.1245 17.0391 24.5456 17.0391C23.9666 17.0391 23.5035 16.576 23.5035 15.9971C23.5035 15.4182 23.9666 14.955 24.5456 14.955C25.1245 14.955 25.5876 15.4182 25.5876 15.9971ZM28.5208 17.0391C28.598 18.4671 28.598 22.7511 28.5208 24.1791C28.4436 25.5685 28.1348 26.765 27.1314 27.807C26.1279 28.8105 24.8929 29.1192 23.5035 29.1964C22.0755 29.2736 17.7915 29.2736 16.3635 29.1964C14.9741 29.1192 13.7777 28.8105 12.7356 27.807C11.7322 26.765 11.4234 25.5685 11.3462 24.1791C11.269 22.7511 11.269 18.4671 11.3462 17.0391C11.4234 15.6497 11.7322 14.4147 12.7356 13.4113C13.7777 12.4078 14.9741 12.099 16.3635 12.0219C17.7915 11.9447 22.0755 11.9447 23.5035 12.0219C24.8929 12.099 26.1279 12.4078 27.1314 13.4113C28.1348 14.4147 28.4436 15.6497 28.5208 17.0391ZM26.6683 25.6843C27.1314 24.5651 27.0156 21.8635 27.0156 20.5898C27.0156 19.3548 27.1314 16.6532 26.6683 15.4954C26.3595 14.7621 25.7806 14.1446 25.0473 13.8744C23.8894 13.4113 21.1878 13.527 19.9528 13.527C18.6792 13.527 15.9776 13.4113 14.8583 13.8744C14.0864 14.1831 13.5075 14.7621 13.1988 15.4954C12.7356 16.6532 12.8514 19.3548 12.8514 20.5898C12.8514 21.8635 12.7356 24.5651 13.1988 25.6843C13.5075 26.4562 14.0864 27.0351 14.8583 27.3439C15.9776 27.807 18.6792 27.6912 19.9528 27.6912C21.1878 27.6912 23.8894 27.807 25.0473 27.3439C25.7806 27.0351 26.3981 26.4562 26.6683 25.6843Z" fill="white" fill-opacity="0.79"/>
</svg>
