<svg width="56" height="56" viewBox="0 0 56 56" fill="none" xmlns="http://www.w3.org/2000/svg">
<rect width="56" height="56" rx="14" fill="#74419A"/>
<path d="M45.9662 22.1028L43.93 13.9532C43.6802 12.952 42.7803 12.25 41.7475 12.25H14.2548C13.222 12.25 12.322 12.952 12.07 13.9532L10.0337 22.1028C10.0112 22.1905 10 22.2828 10 22.375C10 25.4755 12.3963 28 15.3438 28C17.056 28 18.5837 27.1473 19.5625 25.8243C20.5413 27.1473 22.069 28 23.7812 28C25.4935 28 27.0212 27.1473 28 25.8243C28.9788 27.1473 30.5042 28 32.2188 28C33.9333 28 35.4587 27.1473 36.4375 25.8243C37.4163 27.1473 38.9417 28 40.6562 28C43.6037 28 46 25.4755 46 22.375C46 22.2828 45.9888 22.1905 45.9662 22.1028Z" fill="white"/>
<path d="M40.6562 30.25C39.124 30.25 37.6682 29.782 36.4375 28.927C33.976 30.6393 30.4615 30.6393 28 28.927C25.5385 30.6393 22.024 30.6393 19.5625 28.927C18.3317 29.782 16.876 30.25 15.3438 30.25C14.239 30.25 13.1973 29.9913 12.25 29.5503V41.5C12.25 42.742 13.258 43.75 14.5 43.75H23.5V34.75H32.5V43.75H41.5C42.742 43.75 43.75 42.742 43.75 41.5V29.5503C42.8027 29.9913 41.761 30.25 40.6562 30.25Z" fill="white"/>
</svg>
