<svg width="56" height="56" viewBox="0 0 56 56" fill="none" xmlns="http://www.w3.org/2000/svg">
<rect width="56" height="56" rx="14" fill="#FF7519"/>
<g clip-path="url(#clip0_9110_241)">
<path fill-rule="evenodd" clip-rule="evenodd" d="M8.43642 26.5933C7.13309 23.0383 8.69809 16.825 13.7731 14.9617C17.1614 13.7217 20.1831 14.6283 22.3198 16.265C22.8931 13.6333 24.6114 10.9883 27.9964 9.74667C33.0798 7.88167 38.2881 11.6133 39.5898 15.165C41.2531 19.7033 40.4348 23.8067 38.7598 27.3883C38.6614 27.4267 38.5631 27.4667 38.4664 27.5067L38.3164 27.59L38.2664 27.425C37.5464 25.7283 36.1881 24.165 33.9964 23.275C29.5264 21.4717 24.9448 24.6017 23.6981 27.6833C22.2164 31.3467 22.7748 34.735 24.0064 37.6583C18.3098 36.2917 11.1781 34.0767 8.43642 26.5933ZM13.7748 26.5C14.3114 26.3033 14.5881 25.7067 14.3898 25.17C13.7998 23.5617 14.6298 21.7717 16.2414 21.18C16.7781 20.9833 17.0548 20.3883 16.8564 19.85C16.6598 19.3133 16.0648 19.0367 15.5264 19.235C12.8414 20.22 11.4581 23.2 12.4448 25.885C12.6414 26.4217 13.2381 26.6983 13.7748 26.5Z" fill="white"/>
<path fill-rule="evenodd" clip-rule="evenodd" d="M30.548 46.135C29.1763 42.645 21.6297 36.1683 24.8663 28.165C25.9163 25.5683 29.8547 22.9383 33.558 24.435C36.0313 25.4367 37.238 27.4317 37.598 29.3867C39.2163 28.2283 41.4697 27.6333 43.9413 28.6283C47.6547 30.1283 48.6563 34.755 47.6063 37.35C44.3763 45.3533 34.4513 44.7783 31.0397 46.3367C30.6863 46.4983 30.6863 46.4983 30.548 46.135ZM28.348 29.7733C28.823 28.5983 30.1647 28.0317 31.3413 28.5067C31.7347 28.665 32.1813 28.475 32.3397 28.0833C32.498 27.69 32.308 27.2433 31.9163 27.085C29.9563 26.2933 27.7213 27.2367 26.9263 29.1983C26.768 29.59 26.958 30.0383 27.3497 30.1967C27.7413 30.355 28.1897 30.165 28.348 29.7733Z" fill="white"/>
</g>
<defs>
<clipPath id="clip0_9110_241">
<rect width="40" height="40" fill="white" transform="translate(8 8)"/>
</clipPath>
</defs>
</svg>
