<svg width="56" height="56" viewBox="0 0 56 56" fill="none" xmlns="http://www.w3.org/2000/svg">
<rect width="56" height="56" rx="14" fill="#FF9457"/>
<path d="M44.8354 23.5156V38.7117C44.8354 40.5553 43.0938 41.9047 41.3208 41.434C39.7754 41.026 38.1199 40.8142 36.4098 40.8142C32.2204 40.8142 28.3135 42.1243 27.9998 42.195C23.528 40.9005 19.1661 40.2493 14.6708 41.434C12.9449 41.9125 11.1641 40.5788 11.1641 38.7117V23.5156C10.3639 23.6333 9.75977 24.3158 9.75977 25.1395V41.2143C9.75977 42.1165 10.4893 42.8539 11.3994 42.8539H24.2498C24.9636 42.8539 25.6305 43.2462 25.9286 43.8895C26.3209 44.7289 27.176 45.3173 28.1645 45.3173C29.1451 45.3173 30.0002 44.7368 30.3847 43.8895C30.6906 43.2462 31.3497 42.8539 32.0635 42.8539H44.6001C45.5023 42.8539 46.2398 42.1165 46.2398 41.2143V25.1395C46.2398 24.3158 45.6278 23.6333 44.8354 23.5156Z" fill="white"/>
<path d="M31.8127 29.3524V31.5177C31.8127 32.6709 30.8713 33.6123 29.7102 33.6123H28.5884V40.8063C33.1308 39.5433 37.5082 39.2059 41.6192 40.2964C42.6547 40.571 43.6589 39.7786 43.6589 38.7117V22.8017C43.6589 22.0956 43.2117 21.4837 42.5527 21.2484C40.4737 20.4874 38.4184 20.0637 36.3943 19.9853C36.0413 21.5543 35.2568 22.99 34.1036 24.1589C32.6286 25.6416 31.8127 27.4931 31.8127 29.3524ZM41.1636 36.153C41.069 36.3775 40.8507 36.5131 40.6208 36.5131C40.545 36.5131 40.4676 36.4985 40.3933 36.4671C37.2311 35.1379 34.1654 35.1348 31.2813 36.4594C30.9852 36.5973 30.637 36.4656 30.501 36.1698C30.3654 35.8749 30.4949 35.5255 30.7902 35.3899C33.9877 33.922 37.3728 33.9205 40.8491 35.3822C41.1487 35.5087 41.2897 35.8534 41.1636 36.153ZM41.1636 31.2214C41.069 31.4459 40.8507 31.5815 40.6208 31.5815C40.545 31.5815 40.4676 31.5669 40.3929 31.5355C38.1769 30.6031 36.0011 30.3181 33.9314 30.6874C33.6096 30.7433 33.3054 30.5319 33.2487 30.2116C33.1917 29.8914 33.4047 29.5857 33.7245 29.529C36.024 29.1168 38.4209 29.4294 40.8495 30.4507C41.1487 30.5771 41.2897 30.9218 41.1636 31.2214ZM35.8344 24.4212C37.467 24.4373 39.1544 24.8066 40.8491 25.5191C41.1487 25.6448 41.2897 25.9903 41.1636 26.2898C41.069 26.5143 40.8507 26.6499 40.6208 26.6499C40.545 26.6499 40.4676 26.6354 40.3933 26.6039C38.84 25.9512 37.3023 25.6126 35.8229 25.598C35.4981 25.595 35.2372 25.3291 35.2403 25.0035C35.2434 24.6787 35.5303 24.409 35.8344 24.4212Z" fill="white"/>
<path d="M14.3726 40.2964C18.4835 39.2059 22.869 39.5433 27.4113 40.8063V33.6123H26.2816C25.1284 33.6123 24.1869 32.6709 24.1869 31.5177V29.3524C24.1869 27.4225 23.4259 25.6024 22.108 24.3629C20.8292 23.1626 19.9741 21.6406 19.6132 19.9853C17.5892 20.0637 15.5338 20.4874 13.4469 21.2484C12.788 21.4837 12.3408 22.0956 12.3408 22.8017V38.7117C12.3408 39.7786 13.3449 40.571 14.3726 40.2964ZM15.1483 25.5191C16.843 24.8066 18.5304 24.4373 20.163 24.4212C20.4633 24.3937 20.7537 24.6787 20.7571 25.0035C20.7602 25.3291 20.4993 25.595 20.1745 25.598C18.6951 25.6126 17.1575 25.9512 15.6041 26.6039C15.5298 26.6354 15.4525 26.6499 15.3766 26.6499C15.1468 26.6499 14.9284 26.5143 14.8338 26.2898C14.7078 25.9903 14.8487 25.6448 15.1483 25.5191ZM15.1479 30.4507C17.5769 29.4294 19.9718 29.1176 22.2729 29.529C22.5928 29.5857 22.8058 29.8914 22.7487 30.2116C22.692 30.5319 22.3894 30.7441 22.0661 30.6874C19.9937 30.3181 17.8202 30.6031 15.6045 31.5355C15.5298 31.5669 15.4525 31.5815 15.3766 31.5815C15.1468 31.5815 14.9284 31.4466 14.8338 31.2214C14.7078 30.9218 14.8487 30.5771 15.1479 30.4507ZM15.1483 35.3822C18.6258 33.9189 22.0109 33.922 25.2072 35.3899C25.5025 35.5255 25.632 35.8749 25.4964 36.1698C25.3608 36.4648 25.0126 36.5966 24.7161 36.4594C21.8312 35.1348 18.7663 35.1371 15.6041 36.4671C15.5298 36.4985 15.4525 36.5131 15.3766 36.5131C15.1468 36.5131 14.9284 36.3782 14.8338 36.153C14.7078 35.8534 14.8487 35.5087 15.1483 35.3822Z" fill="white"/>
<path d="M25.3401 28.7405H27.4112V21.0601C25.8344 20.7306 24.634 19.0831 24.634 17.0983C24.634 16.7766 24.893 16.5099 25.2224 16.5099C25.544 16.5099 25.8108 16.7766 25.8108 17.0983C25.8108 18.6673 26.7914 19.9461 27.9996 19.9461C29.2078 19.9461 30.1885 18.6673 30.1885 17.0983C30.1885 16.7766 30.4472 16.5099 30.7769 16.5099C31.0984 16.5099 31.3652 16.7766 31.3652 17.0983C31.3652 19.0753 30.1649 20.7227 28.588 21.0601V28.7405H30.6669C30.8239 26.6929 31.8045 24.8022 33.2716 23.3273C34.5973 21.9858 35.4211 20.1343 35.4211 18.1025C35.4211 13.7327 31.6319 10.2416 27.1523 10.728C23.8024 11.0967 21.0487 13.8033 20.633 17.161C20.327 19.6636 21.2684 21.9623 22.916 23.5078C24.3672 24.8728 25.1989 26.7635 25.3401 28.7405Z" fill="white"/>
<path d="M30.633 31.5174V29.9177H25.3638V31.5174C25.3638 32.0252 25.7755 32.4369 26.2832 32.4369H29.7136C30.2213 32.4369 30.633 32.0252 30.633 31.5174Z" fill="white"/>
</svg>
