<svg width="56" height="56" viewBox="0 0 56 56" fill="none" xmlns="http://www.w3.org/2000/svg">
<rect width="56" height="56" rx="14" fill="#27C3FC"/>
<g clip-path="url(#clip0_9110_335)">
<path d="M28 10C24.4399 10 20.9598 11.0557 17.9997 13.0335C15.0397 15.0114 12.7326 17.8226 11.3702 21.1117C10.0078 24.4008 9.65134 28.02 10.3459 31.5116C11.0404 35.0033 12.7547 38.2106 15.2721 40.7279C17.7894 43.2453 20.9967 44.9596 24.4884 45.6541C27.98 46.3487 31.5992 45.9922 34.8883 44.6298C38.1774 43.2675 40.9886 40.9604 42.9665 38.0003C44.9443 35.0402 46 31.5601 46 28C46 23.2261 44.1036 18.6477 40.7279 15.2721C37.3523 11.8964 32.7739 10 28 10ZM37.975 26.14L33.475 30.055L34.78 35.92C34.8303 36.1426 34.8291 36.3737 34.7766 36.5957C34.7241 36.8177 34.6216 37.0249 34.4769 37.2013C34.3323 37.3778 34.1493 37.519 33.9419 37.614C33.7345 37.7091 33.5081 37.7556 33.28 37.75C32.9674 37.748 32.6632 37.6483 32.41 37.465L28 34.345L23.62 37.465C23.3762 37.6372 23.0867 37.7327 22.7883 37.7394C22.4899 37.7461 22.1964 37.6637 21.9451 37.5026C21.6939 37.3416 21.4964 37.1092 21.3779 36.8353C21.2594 36.5614 21.2253 36.2584 21.28 35.965L22.585 30.1L18.085 26.185C17.8461 26.0031 17.6672 25.7536 17.5717 25.4689C17.4761 25.1841 17.4682 24.8773 17.549 24.588C17.6298 24.2988 17.7956 24.0404 18.0249 23.8465C18.2541 23.6525 18.5364 23.5318 18.835 23.5L24.67 22.855L26.605 17.71C26.713 17.4254 26.9049 17.1804 27.1554 17.0075C27.4059 16.8346 27.7031 16.742 28.0075 16.742C28.3119 16.742 28.6091 16.8346 28.8596 17.0075C29.1101 17.1804 29.3021 17.4254 29.41 17.71L31.345 22.855L37.165 23.5C37.4545 23.5332 37.728 23.65 37.9522 23.8361C38.1763 24.0222 38.3415 24.2695 38.4274 24.5479C38.5133 24.8263 38.5162 25.1237 38.4359 25.4038C38.3556 25.6839 38.1954 25.9345 37.975 26.125V26.14Z" fill="white"/>
</g>
<defs>
<clipPath id="clip0_9110_335">
<rect width="36" height="36" fill="white" transform="translate(10 10)"/>
</clipPath>
</defs>
</svg>
