<svg width="71" height="72" viewBox="0 0 71 72" fill="none" xmlns="http://www.w3.org/2000/svg">
<circle cx="35.4628" cy="36.1857" r="35.4628" fill="#74419A"/>
<g clip-path="url(#clip0_9174_54)">
<path d="M33.9108 24.6781L30.9273 23.1696L33.0392 18.8955H47.2358L49.3644 23.1696L46.381 24.6613L45.1742 22.2477H35.1176L33.9108 24.6781ZM51.2417 28.9521H43.6489L42.3248 23.9238H37.9669L36.6093 28.9521H29.0669L26.9047 33.2262L29.9049 34.7179L31.1285 32.3043H49.1801L50.3701 34.7347L53.3703 33.2429L51.2417 28.9521ZM49.817 52.4175H46.3475L45.9452 50.909L40.1459 42.1933L34.3298 50.909L33.9443 52.4175H30.4748L35.3187 33.9804H38.7882L38.1848 36.2432L40.1459 39.1763L42.0902 36.2432L41.5035 33.9804H44.9898L49.817 52.4175ZM39.1235 40.6848L37.6317 38.4221L35.6539 45.931L39.1235 40.6848ZM44.6378 45.9143L42.66 38.4053L41.1515 40.6848L44.6378 45.9143ZM29.9049 42.3609L23.2005 35.6565V40.6848H16.4961V44.037H23.2005V49.0653L29.9049 42.3609Z" fill="white"/>
</g>
<defs>
<clipPath id="clip0_9174_54">
<rect width="38.6385" height="34.4042" fill="white" transform="translate(16.4082 18.7188)"/>
</clipPath>
</defs>
</svg>
