<svg width="72" height="72" viewBox="0 0 72 72" fill="none" xmlns="http://www.w3.org/2000/svg">
<circle cx="36.1381" cy="35.6115" r="35.4628" fill="#FF7519"/>
<path fill-rule="evenodd" clip-rule="evenodd" d="M46.0626 31.4829H40.1606L43.9742 22.5845C44.1002 22.2906 44.1512 21.9701 44.1228 21.6517C44.0944 21.3333 43.9875 21.0268 43.8115 20.7599C43.6355 20.493 43.3961 20.2739 43.1146 20.1224C42.8331 19.9708 42.5185 19.8914 42.1988 19.8914H32.5391C32.1608 19.891 31.7906 20.0018 31.4747 20.2099C31.1587 20.418 30.9108 20.7144 30.7618 21.0621L24.966 34.5856C24.8399 34.8796 24.7889 35.2003 24.8174 35.5188C24.8459 35.8374 24.953 36.144 25.1292 36.4109C25.3054 36.6779 25.5451 36.8969 25.8268 37.0484C26.1086 37.1998 26.4235 37.279 26.7433 37.2787H30.0933L24.9505 50.0816C24.1777 52.0038 26.5637 53.6286 28.0686 52.2067L37.7746 43.0455L47.3184 34.8831C48.6823 33.7162 47.8593 31.4829 46.0626 31.4829ZM35.4563 32.6537C35.3304 32.9474 35.2794 33.2677 35.3077 33.586C35.336 33.9042 35.4428 34.2105 35.6185 34.4774C35.7942 34.7443 36.0334 34.9634 36.3146 35.1151C36.5959 35.2668 36.9103 35.3464 37.2298 35.3468H40.831L35.1897 40.1727L31.8127 43.3604L34.7435 36.0674C34.8613 35.7743 34.9054 35.4568 34.8721 35.1427C34.8387 34.8286 34.7288 34.5275 34.5521 34.2657C34.3754 34.0039 34.1371 33.7895 33.8583 33.6412C33.5794 33.4928 33.2684 33.4151 32.9526 33.4148H29.6741L33.8123 23.7552H39.268L35.4563 32.6537Z" fill="white"/>
</svg>
