<svg width="72" height="71" viewBox="0 0 72 71" fill="none" xmlns="http://www.w3.org/2000/svg">
<circle cx="36.3129" cy="35.5372" r="35.4628" fill="#27C3FC"/>
<path fill-rule="evenodd" clip-rule="evenodd" d="M27.7795 37.1116C28.5539 38.0582 30.5244 41.5655 30.943 43.3219H42.2126C42.6312 41.5671 44.5993 38.0599 45.3737 37.114C46.697 35.4998 47.53 33.5401 47.7741 31.4672C48.015 29.3982 47.6547 27.3036 46.7365 25.4339C45.8096 23.5503 44.3684 21.9677 42.5797 20.8689C40.7752 19.759 38.698 19.1719 36.5794 19.1729C34.4567 19.1729 32.3767 19.7605 30.5792 20.8673C28.79 21.9656 27.3482 23.548 26.4207 25.4315C25.502 27.3004 25.1409 29.3944 25.3807 31.4631C25.6214 33.5295 26.4529 35.488 27.7795 37.1116ZM37.3828 25.6126L32.553 32.8573H35.7729V37.6872L40.6027 30.4424H37.3828V25.6126Z" fill="white"/>
<path d="M30.9429 45.7373C30.9429 45.5239 31.0277 45.3191 31.1786 45.1681C31.3296 45.0172 31.5343 44.9324 31.7478 44.9324H41.4075C41.621 44.9324 41.8257 45.0172 41.9767 45.1681C42.1276 45.3191 42.2124 45.5239 42.2124 45.7373C42.2124 45.9508 42.1276 46.1556 41.9767 46.3065C41.8257 46.4575 41.621 46.5423 41.4075 46.5423H31.7478C31.5343 46.5423 31.3296 46.4575 31.1786 46.3065C31.0277 46.1556 30.9429 45.9508 30.9429 45.7373ZM42.2124 48.1523H30.9429V49.7622C30.9429 50.1892 31.1125 50.5987 31.4144 50.9006C31.7163 51.2025 32.1258 51.3721 32.5528 51.3721H40.6025C41.0295 51.3721 41.439 51.2025 41.7409 50.9006C42.0428 50.5987 42.2124 50.1892 42.2124 49.7622V48.1523Z" fill="white"/>
</svg>
