<svg width="72" height="71" viewBox="0 0 72 71" fill="none" xmlns="http://www.w3.org/2000/svg">
<circle cx="36.3134" cy="35.5372" r="35.4628" fill="#D55EFF"/>
<path fill-rule="evenodd" clip-rule="evenodd" d="M27.78 37.1116C28.5544 38.0582 30.5249 41.5655 30.9435 43.3219H42.2131C42.6317 41.5671 44.5998 38.0599 45.3742 37.114C46.6975 35.4998 47.5305 33.5401 47.7746 31.4672C48.0154 29.3982 47.6552 27.3036 46.737 25.4339C45.8101 23.5503 44.3689 21.9677 42.5802 20.8689C40.7757 19.759 38.6984 19.1719 36.5799 19.1729C34.4572 19.1729 32.3772 19.7605 30.5797 20.8673C28.7905 21.9656 27.3487 23.548 26.4212 25.4315C25.5025 27.3004 25.1414 29.3944 25.3812 31.4631C25.6219 33.5295 26.4534 35.488 27.78 37.1116ZM37.3833 25.6126L32.5535 32.8573H35.7733V37.6872L40.6032 30.4424H37.3833V25.6126Z" fill="white"/>
<path d="M30.9434 45.7373C30.9434 45.5239 31.0282 45.3191 31.1791 45.1681C31.3301 45.0172 31.5348 44.9324 31.7483 44.9324H41.408C41.6215 44.9324 41.8262 45.0172 41.9772 45.1681C42.1281 45.3191 42.2129 45.5239 42.2129 45.7373C42.2129 45.9508 42.1281 46.1556 41.9772 46.3065C41.8262 46.4575 41.6215 46.5423 41.408 46.5423H31.7483C31.5348 46.5423 31.3301 46.4575 31.1791 46.3065C31.0282 46.1556 30.9434 45.9508 30.9434 45.7373ZM42.2129 48.1523H30.9434V49.7622C30.9434 50.1892 31.113 50.5987 31.4149 50.9006C31.7168 51.2025 32.1263 51.3721 32.5533 51.3721H40.603C41.03 51.3721 41.4395 51.2025 41.7414 50.9006C42.0433 50.5987 42.2129 50.1892 42.2129 49.7622V48.1523Z" fill="white"/>
</svg>
