<svg width="40" height="40" viewBox="0 0 40 40" fill="none" xmlns="http://www.w3.org/2000/svg">
<circle cx="20" cy="20" r="20" fill="white" fill-opacity="0.07"/>
<path d="M27.251 16.7184C27.251 16.8921 27.251 17.031 27.251 17.2047C27.251 22.0329 23.6038 27.5558 16.9 27.5558C14.8159 27.5558 12.9054 26.9653 11.3076 25.9232C11.5855 25.9579 11.8634 25.9927 12.176 25.9927C13.878 25.9927 15.4411 25.4022 16.6916 24.4296C15.0937 24.3949 13.7391 23.3528 13.2875 21.8939C13.5307 21.9287 13.7391 21.9634 13.9822 21.9634C14.2948 21.9634 14.6422 21.8939 14.9201 21.8245C13.2528 21.4771 12.0023 20.0182 12.0023 18.2468V18.212C12.4886 18.4899 13.0791 18.6288 13.6696 18.6636C12.6623 18.0036 12.0371 16.8921 12.0371 15.6416C12.0371 14.9469 12.2107 14.3217 12.5233 13.8007C14.3296 15.989 17.0389 17.4478 20.0609 17.6215C19.9914 17.3436 19.9567 17.0658 19.9567 16.7879C19.9567 14.7732 21.5892 13.1407 23.6038 13.1407C24.6459 13.1407 25.5837 13.5575 26.2784 14.287C27.0774 14.1133 27.8763 13.8007 28.571 13.3838C28.2931 14.2522 27.7373 14.9469 26.9731 15.3985C27.7026 15.329 28.432 15.1206 29.0573 14.8427C28.571 15.5722 27.9457 16.1974 27.251 16.7184Z" fill="white" fill-opacity="0.79"/>
</svg>
