<svg width="39" height="40" viewBox="0 0 39 40" fill="none" xmlns="http://www.w3.org/2000/svg">
<circle cx="19.5" cy="20.3082" r="18" fill="white" fill-opacity="0.1"/>
<path d="M29.5 15.4328C29.5 15.0961 29.371 14.7594 29.1387 14.517L27.3839 12.6853C27.1516 12.4429 26.829 12.3082 26.5065 12.3082C26.1839 12.3082 25.8613 12.4429 25.629 12.6853L17.1645 21.5338L13.371 17.5608C13.1387 17.3183 12.8161 17.1836 12.4935 17.1836C12.171 17.1836 11.8484 17.3183 11.6161 17.5608L9.86129 19.3924C9.62903 19.6348 9.5 19.9715 9.5 20.3082C9.5 20.6449 9.62903 20.9816 9.86129 21.2241L14.5323 26.0995L16.2871 27.9311C16.5194 28.1735 16.8419 28.3082 17.1645 28.3082C17.4871 28.3082 17.8097 28.1735 18.0419 27.9311L19.7968 26.0995L29.1387 16.3486C29.371 16.1062 29.5 15.7695 29.5 15.4328Z" fill="white"/>
</svg>
