<svg width="32" height="33" viewBox="0 0 32 33" fill="none" xmlns="http://www.w3.org/2000/svg">
<rect y="0.5" width="32" height="32" rx="16" fill="white" fill-opacity="0.1"/>
<path d="M11.5833 20.9166C11.4861 20.9166 11.3925 20.8958 11.3025 20.8541C11.2119 20.8125 11.1319 20.7569 11.0625 20.6875L7.625 17.25C7.5 17.125 7.4375 16.9755 7.4375 16.8016C7.4375 16.6283 7.5 16.4791 7.625 16.3541C7.73611 16.2291 7.87861 16.1666 8.0525 16.1666C8.22583 16.1666 8.375 16.2291 8.5 16.3541L11.6042 19.4583L11.875 19.1666L12.7708 20.0416L12.1042 20.6875C12.0347 20.7569 11.9547 20.8125 11.8642 20.8541C11.7742 20.8958 11.6806 20.9166 11.5833 20.9166ZM16.2917 20.8958C16.1944 20.8958 16.1008 20.8783 16.0108 20.8433C15.9203 20.8088 15.8403 20.7569 15.7708 20.6875L12.3125 17.2291C12.1875 17.1041 12.125 16.9547 12.125 16.7808C12.125 16.6075 12.1875 16.4583 12.3125 16.3333C12.4375 16.2222 12.5833 16.1666 12.75 16.1666C12.9167 16.1666 13.0625 16.2222 13.1875 16.3333L16.2917 19.4375L23.5208 12.2083C23.6458 12.0972 23.7917 12.0416 23.9583 12.0416C24.125 12.0416 24.2708 12.0972 24.3958 12.2083C24.5208 12.3333 24.5833 12.4825 24.5833 12.6558C24.5833 12.8297 24.5208 12.9791 24.3958 13.1041L16.8125 20.6875C16.7431 20.7569 16.6633 20.8088 16.5733 20.8433C16.4828 20.8783 16.3889 20.8958 16.2917 20.8958ZM16 16.7916L15.1042 15.9166L18.7917 12.2291C18.9167 12.1041 19.0658 12.0416 19.2392 12.0416C19.4131 12.0416 19.5625 12.1041 19.6875 12.2291C19.8125 12.3541 19.875 12.5 19.875 12.6666C19.875 12.8333 19.8125 12.9791 19.6875 13.1041L16 16.7916Z" fill="#FF7519"/>
</svg>
