<svg width="21" height="21" viewBox="0 0 21 21" fill="none" xmlns="http://www.w3.org/2000/svg">
<path fill-rule="evenodd" clip-rule="evenodd" d="M4.86212 4.3435C5.04965 4.15603 5.30396 4.05071 5.56912 4.05071C5.83429 4.05071 6.08859 4.15603 6.27612 4.3435L10.5691 8.6365L14.8621 4.3435C14.9544 4.24799 15.0647 4.1718 15.1867 4.11939C15.3087 4.06699 15.4399 4.0394 15.5727 4.03825C15.7055 4.03709 15.8372 4.06239 15.9601 4.11267C16.083 4.16296 16.1946 4.23721 16.2885 4.3311C16.3824 4.42499 16.4567 4.53665 16.5069 4.65954C16.5572 4.78244 16.5825 4.91412 16.5814 5.0469C16.5802 5.17968 16.5526 5.3109 16.5002 5.4329C16.4478 5.5549 16.3716 5.66525 16.2761 5.7575L11.9831 10.0505L16.2761 14.3435C16.4583 14.5321 16.5591 14.7847 16.5568 15.0469C16.5545 15.3091 16.4493 15.5599 16.2639 15.7453C16.0785 15.9307 15.8277 16.0359 15.5655 16.0382C15.3033 16.0404 15.0507 15.9397 14.8621 15.7575L10.5691 11.4645L6.27612 15.7575C6.08752 15.9397 5.83492 16.0404 5.57272 16.0382C5.31052 16.0359 5.05971 15.9307 4.8743 15.7453C4.6889 15.5599 4.58373 15.3091 4.58145 15.0469C4.57917 14.7847 4.67996 14.5321 4.86212 14.3435L9.15512 10.0505L4.86212 5.7575C4.67465 5.56997 4.56934 5.31566 4.56934 5.0505C4.56934 4.78533 4.67465 4.53102 4.86212 4.3435Z" fill="white"/>
</svg>
