<svg width="40" height="40" viewBox="0 0 40 40" fill="none" xmlns="http://www.w3.org/2000/svg">
<circle cx="20" cy="20" r="20" fill="white" fill-opacity="0.07"/>
<path d="M28.3772 15.7806C28.794 17.2394 28.794 20.3656 28.794 20.3656C28.794 20.3656 28.794 23.457 28.3772 24.9506C28.1688 25.7843 27.5088 26.4095 26.7099 26.6179C25.2163 27 19.3113 27 19.3113 27C19.3113 27 13.3716 27 11.878 26.6179C11.0791 26.4095 10.4191 25.7843 10.2107 24.9506C9.79391 23.457 9.79391 20.3656 9.79391 20.3656C9.79391 20.3656 9.79391 17.2394 10.2107 15.7806C10.4191 14.9469 11.0791 14.287 11.878 14.0785C13.3716 13.6617 19.3113 13.6617 19.3113 13.6617C19.3113 13.6617 25.2163 13.6617 26.7099 14.0785C27.5088 14.287 28.1688 14.9469 28.3772 15.7806ZM17.3662 23.1791L22.2985 20.3656L17.3662 17.5521V23.1791Z" fill="white" fill-opacity="0.79"/>
</svg>
